<?xml version="1.0" encoding="UTF-8"?>
<svg width="188px" height="60px" viewBox="0 0 188 60" version="1.1" xmlns="http://www.w3.org/2000/svg" xmlns:xlink="http://www.w3.org/1999/xlink">
    <!-- Generator: Sketch 63.1 (92452) - https://sketch.com -->
    <title>drupal-seeklogo.com</title>
    <desc>Created with Sketch.</desc>
    <g id="181023" stroke="none" stroke-width="1" fill="none" fill-rule="evenodd">
        <g id="Php--Development-New" transform="translate(-328.000000, -4614.000000)" fill="#0163A4" fill-rule="nonzero">
            <g id="Technologies" transform="translate(120.000000, 4000.000000)">
                <g id="CMS" transform="translate(208.000000, 599.000000)">
                    <g id="drupal-seeklogo.com" transform="translate(0.000000, 15.000000)">
                        <g id="Group" transform="translate(61.153846, 20.769231)">
                            <path d="M28.3846154,15.5769231 C28.3846154,18.1153846 28.1538462,20.3076923 27.6923077,22.1538462 C27.2307692,24 26.4230769,25.5 25.3846154,26.6538462 C24.2307692,27.8076923 22.8461538,28.7307692 21,29.3076923 C19.1538462,29.8846154 16.9615385,30.1153846 14.3076923,30.1153846 L1.26923077,30.1153846 C0.807692308,30.1153846 0.576923077,29.8846154 0.576923077,29.5384615 L0.576923077,1.73076923 C0.576923077,1.26923077 0.807692308,1.15384615 1.26923077,1.15384615 L14.3076923,1.15384615 C16.9615385,1.15384615 19.2692308,1.38461538 21,1.96153846 C22.8461538,2.53846154 24.2307692,3.34615385 25.3846154,4.61538462 C26.5384615,5.76923077 27.2307692,7.26923077 27.6923077,9.11538462 C28.1538462,10.9615385 28.3846154,13.0384615 28.3846154,15.5769231 Z M21.2307692,15.6923077 C21.2307692,13.6153846 21.1153846,12 20.8846154,10.7307692 C20.6538462,9.46153846 20.1923077,8.42307692 19.6153846,7.73076923 C19.0384615,7.03846154 18.2307692,6.46153846 17.1923077,6.23076923 C16.1538462,6 15,5.76923077 13.5,5.76923077 L7.5,5.76923077 L7.5,25.7307692 L13.5,25.7307692 C14.8846154,25.7307692 16.1538462,25.6153846 17.1923077,25.2692308 C18.2307692,25.0384615 19.0384615,24.4615385 19.6153846,23.7692308 C20.1923077,23.0769231 20.6538462,22.0384615 20.8846154,20.7692308 C21.1153846,19.3846154 21.2307692,17.6538462 21.2307692,15.6923077 Z" id="Shape"></path>
                            <path d="M44.1923077,13.3846154 C44.0769231,13.5 43.9615385,13.6153846 43.5,13.6153846 C42.2307692,13.6153846 41.1923077,13.6153846 40.1538462,13.7307692 C39.2307692,13.8461538 38.5384615,13.9615385 38.1923077,13.9615385 L38.1923077,29.5384615 C38.1923077,29.8846154 37.9615385,30.1153846 37.5,30.1153846 L32.4230769,30.1153846 C32.3076923,30.1153846 32.1923077,30.1153846 31.9615385,30 C31.8461538,29.8846154 31.7307692,29.7692308 31.7307692,29.5384615 L31.7307692,12.3461538 C31.7307692,11.7692308 31.8461538,11.3076923 32.1923077,11.0769231 C32.5384615,10.8461538 33,10.5 33.5769231,10.2692308 C34.2692308,10.0384615 34.9615385,9.92307692 35.8846154,9.80769231 C36.8076923,9.69230769 37.7307692,9.57692308 38.5384615,9.46153846 C39.1153846,9.34615385 39.8076923,9.34615385 40.5,9.23076923 C41.1923077,9.11538462 41.8846154,9.11538462 42.5769231,9.11538462 L42.9230769,9.11538462 C43.1538462,9.11538462 43.2692308,9.11538462 43.3846154,9.11538462 C43.5,9.11538462 43.6153846,9.23076923 43.7307692,9.34615385 C43.7307692,9.34615385 43.8461538,9.46153846 43.9615385,9.57692308 C44.0769231,9.69230769 44.0769231,9.80769231 44.0769231,10.0384615 L44.0769231,12.9230769 C44.3076923,13.0384615 44.3076923,13.1538462 44.1923077,13.3846154 Z" id="Path"></path>
                            <path d="M63.6923077,28.9615385 C62.0769231,30.1153846 59.5384615,30.6923077 56.0769231,30.6923077 C54.4615385,30.6923077 52.9615385,30.5769231 51.8076923,30.3461538 C50.5384615,30.1153846 49.5,29.6538462 48.6923077,29.0769231 C47.8846154,28.5 47.1923077,27.8076923 46.8461538,26.7692308 C46.3846154,25.8461538 46.1538462,24.5769231 46.1538462,23.1923077 L46.1538462,10.7307692 C46.1538462,10.1538462 46.3846154,9.80769231 46.9615385,9.80769231 L51.6923077,9.11538462 L51.9230769,9.11538462 C52.3846154,9.11538462 52.6153846,9.34615385 52.6153846,9.80769231 L52.6153846,23.5384615 C52.6153846,24.5769231 52.8461538,25.3846154 53.3076923,25.9615385 C53.7692308,26.5384615 54.6923077,26.7692308 56.0769231,26.7692308 C56.8846154,26.7692308 57.4615385,26.6538462 57.9230769,26.5384615 C58.3846154,26.4230769 58.7307692,26.1923077 58.9615385,25.8461538 C59.1923077,25.5 59.4230769,25.2692308 59.4230769,24.8076923 C59.5384615,24.4615385 59.5384615,24 59.5384615,23.5384615 L59.5384615,10.7307692 C59.5384615,10.1538462 59.7692308,9.92307692 60.3461538,9.80769231 L65.0769231,9.11538462 C65.0769231,9.11538462 65.1923077,9.11538462 65.3076923,9.11538462 C65.7692308,9.11538462 66,9.34615385 66,9.80769231 L66,23.3076923 C66.1153846,25.8461538 65.3076923,27.8076923 63.6923077,28.9615385 Z" id="Path"></path>
                            <path d="M90.3461538,19.8461538 C90.3461538,21.2307692 90.2307692,22.6153846 90,23.8846154 C89.7692308,25.1538462 89.4230769,26.3076923 88.7307692,27.3461538 C88.1538462,28.3846154 87.2307692,29.1923077 85.9615385,29.7692308 C84.8076923,30.3461538 83.1923077,30.6923077 81.2307692,30.6923077 C80.0769231,30.6923077 79.1538462,30.5769231 78.1153846,30.4615385 C77.1923077,30.3461538 76.2692308,30.1153846 75.5769231,30 L76.0384615,32.4230769 L76.0384615,36.6923077 C76.0384615,37.2692308 75.8076923,37.5 75.2307692,37.6153846 L70.5,38.3076923 L70.2692308,38.3076923 C69.8076923,38.3076923 69.5769231,38.0769231 69.5769231,37.6153846 L69.5769231,13.3846154 C69.5769231,12.8076923 69.6923077,12.3461538 69.8076923,12 C69.9230769,11.6538462 70.1538462,11.3076923 70.3846154,11.0769231 C70.6153846,10.8461538 70.8461538,10.6153846 71.1923077,10.5 C71.5384615,10.3846154 71.8846154,10.1538462 72.3461538,10.0384615 C73.7307692,9.69230769 75.1153846,9.34615385 76.6153846,9.11538462 C78.1153846,8.88461538 79.6153846,8.76923077 81,8.76923077 C83.0769231,8.76923077 84.6923077,9 85.9615385,9.57692308 C87.2307692,10.1538462 88.1538462,10.8461538 88.7307692,11.8846154 C89.4230769,12.8076923 89.7692308,13.9615385 90,15.3461538 C90.2307692,16.8461538 90.3461538,18.3461538 90.3461538,19.8461538 Z M83.7692308,19.7307692 C83.7692308,18.2307692 83.6538462,17.0769231 83.5384615,16.1538462 C83.4230769,15.2307692 83.1923077,14.6538462 82.8461538,14.1923077 C82.5,13.7307692 82.1538462,13.5 81.5769231,13.3846154 C81.1153846,13.2692308 80.4230769,13.1538462 79.7307692,13.1538462 C79.2692308,13.1538462 78.9230769,13.1538462 78.4615385,13.2692308 C78,13.3846154 77.6538462,13.3846154 77.3076923,13.5 C76.8461538,13.6153846 76.5,13.6153846 76.1538462,13.7307692 L76.1538462,26.4230769 C76.5,26.5384615 76.7307692,26.5384615 77.0769231,26.6538462 C77.4230769,26.6538462 77.7692308,26.7692308 78.1153846,26.7692308 C78.4615385,26.7692308 78.9230769,26.7692308 79.3846154,26.7692308 C80.1923077,26.7692308 80.8846154,26.6538462 81.4615385,26.5384615 C82.0384615,26.4230769 82.5,26.0769231 82.8461538,25.5 C83.1923077,25.0384615 83.4230769,24.3461538 83.5384615,23.4230769 C83.6538462,22.5 83.7692308,21.1153846 83.7692308,19.7307692 Z" id="Shape"></path>
                            <path d="M112.038462,27.8076923 C111.923077,28.2692308 111.692308,28.6153846 111.346154,28.9615385 C111,29.3076923 110.653846,29.4230769 110.076923,29.6538462 C109.615385,29.7692308 108.923077,30 108.230769,30.1153846 C107.423077,30.3461538 106.615385,30.4615385 105.576923,30.5769231 C104.653846,30.6923077 103.5,30.6923077 102.230769,30.6923077 C100.961538,30.6923077 99.8076923,30.5769231 98.5384615,30.4615385 C97.3846154,30.3461538 96.2307692,30 95.3076923,29.5384615 C94.3846154,29.0769231 93.5769231,28.3846154 93,27.5769231 C92.4230769,26.6538462 92.0769231,25.5 92.0769231,23.8846154 C92.0769231,22.6153846 92.3076923,21.5769231 92.6538462,20.8846154 C93,20.0769231 93.5769231,19.5 94.1538462,19.1538462 C94.7307692,18.6923077 95.4230769,18.4615385 96.2307692,18.2307692 C97.0384615,18 97.7307692,17.8846154 98.5384615,17.7692308 L105.807692,16.6153846 L105.807692,15.5769231 C105.807692,15 105.807692,14.6538462 105.692308,14.3076923 C105.576923,13.9615385 105.346154,13.7307692 104.884615,13.5 C104.307692,13.2692308 103.384615,13.1538462 101.884615,13.1538462 C101.192308,13.1538462 100.5,13.1538462 99.8076923,13.2692308 C99.1153846,13.3846154 98.4230769,13.5 97.7307692,13.6153846 C97.0384615,13.7307692 96.4615385,13.8461538 96,13.9615385 C95.5384615,14.0769231 95.0769231,14.1923077 94.8461538,14.1923077 C94.7307692,14.1923077 94.6153846,14.3076923 94.5,14.3076923 C94.2692308,14.3076923 94.0384615,14.1923077 94.0384615,13.9615385 L93.4615385,11.3076923 C93.4615385,11.3076923 93.4615385,11.1923077 93.4615385,11.0769231 C93.4615385,10.8461538 93.4615385,10.7307692 93.5769231,10.7307692 C93.6923077,10.6153846 93.8076923,10.6153846 93.9230769,10.5 C94.1538462,10.3846154 94.5,10.2692308 95.0769231,10.1538462 C95.6538462,10.0384615 96.3461538,9.80769231 97.1538462,9.69230769 C97.9615385,9.57692308 98.8846154,9.34615385 99.9230769,9.23076923 C100.961538,9.11538462 102,9 103.153846,9 C104.653846,9 105.923077,9.11538462 106.961538,9.34615385 C108,9.57692308 108.807692,9.80769231 109.5,10.1538462 C110.538462,10.7307692 111.230769,11.4230769 111.576923,12.2307692 C111.923077,13.1538462 112.153846,14.0769231 112.153846,15.2307692 L112.153846,26.0769231 C112.269231,26.7692308 112.153846,27.3461538 112.038462,27.8076923 Z M105.923077,20.3076923 L101.423077,21 C101.076923,21 100.615385,21.1153846 100.269231,21.2307692 C99.9230769,21.3461538 99.5769231,21.4615385 99.3461538,21.6923077 C99.1153846,21.9230769 98.8846154,22.1538462 98.6538462,22.5 C98.5384615,22.8461538 98.4230769,23.3076923 98.4230769,23.8846154 C98.4230769,24.5769231 98.5384615,25.1538462 98.7692308,25.5 C99,25.9615385 99.3461538,26.1923077 99.6923077,26.4230769 C100.038462,26.6538462 100.5,26.7692308 100.961538,26.7692308 C101.423077,26.7692308 101.884615,26.8846154 102.346154,26.8846154 C103.153846,26.8846154 103.846154,26.8846154 104.423077,26.7692308 C105,26.6538462 105.461538,26.5384615 105.807692,26.5384615 L105.807692,20.3076923 L105.923077,20.3076923 Z" id="Shape"></path>
                            <path d="M126.576923,29.3076923 C126.576923,29.5384615 126.576923,29.6538462 126.461538,29.7692308 C126.346154,29.8846154 126.230769,29.8846154 126.230769,29.8846154 C126,30 125.653846,30.1153846 124.961538,30.2307692 C124.384615,30.3461538 123.461538,30.4615385 122.192308,30.4615385 C120,30.4615385 118.5,30 117.461538,28.9615385 C116.423077,27.9230769 115.961538,26.6538462 115.961538,24.9230769 L115.961538,2.19230769 C115.961538,1.96153846 115.961538,1.73076923 116.076923,1.61538462 C116.192308,1.5 116.307692,1.38461538 116.653846,1.38461538 L121.5,0.692307692 L121.730769,0.692307692 C122.192308,0.692307692 122.423077,0.923076923 122.423077,1.38461538 L122.423077,24.4615385 C122.423077,25.1538462 122.653846,25.6153846 123,25.8461538 C123.346154,26.0769231 123.692308,26.1923077 124.153846,26.1923077 C124.5,26.1923077 124.730769,26.1923077 124.961538,26.1923077 C125.192308,26.1923077 125.423077,26.1923077 125.538462,26.0769231 C125.538462,26.0769231 125.538462,26.0769231 125.653846,26.0769231 C125.653846,26.0769231 125.653846,26.0769231 125.769231,26.0769231 C126,26.0769231 126.230769,26.1923077 126.230769,26.5384615 L126.807692,29.1923077 L126.807692,29.3076923 L126.576923,29.3076923 Z" id="Path"></path>
                        </g>
                        <path d="M38.5384615,11.5384615 C35.5384615,9.69230769 32.7692308,9 29.8846154,7.03846154 C28.1538462,5.88461538 25.7307692,3 23.6538462,0.576923077 C23.3076923,4.5 22.0384615,6 20.7692308,7.15384615 C17.8846154,9.46153846 16.0384615,10.0384615 13.6153846,11.4230769 C11.5384615,12.4615385 0.230769231,19.2692308 0.230769231,33.8076923 C0.230769231,48.3461538 12.4615385,59.0769231 26.0769231,59.0769231 C39.6923077,59.0769231 51.4615385,49.1538462 51.4615385,34.2692308 C51.4615385,19.3846154 40.3846154,12.5769231 38.5384615,11.5384615 Z M38.8846154,53.8846154 C38.6538462,54.1153846 36,55.9615385 33,56.3076923 C30,56.5384615 25.8461538,56.7692308 23.3076923,54.4615385 C22.9615385,54.1153846 23.0769231,53.5384615 23.3076923,53.3076923 C23.5384615,53.0769231 23.7692308,52.9615385 24.1153846,52.9615385 C24.4615385,52.9615385 24.3461538,52.9615385 24.5769231,53.0769231 C25.7307692,54 27.3461538,54.6923077 31.0384615,54.6923077 C34.6153846,54.6923077 37.1538462,53.6538462 38.3076923,52.8461538 C38.7692308,52.5 39,52.8461538 39.1153846,52.9615385 C39.2307692,53.1923077 39.3461538,53.4230769 38.8846154,53.8846154 Z M29.0769231,48.6923077 C29.6538462,48.1153846 30.6923077,47.1923077 31.6153846,46.8461538 C32.5384615,46.5 33.1153846,46.5 34.0384615,46.5 C34.9615385,46.5 35.8846154,46.5 36.5769231,46.9615385 C37.2692308,47.4230769 37.6153846,48.4615385 37.8461538,49.0384615 C38.0769231,49.6153846 37.8461538,49.9615385 37.3846154,50.1923077 C37.0384615,50.4230769 36.9230769,50.3076923 36.5769231,49.6153846 C36.2307692,48.9230769 35.8846154,48.1153846 33.9230769,48.1153846 C31.9615385,48.1153846 31.3846154,48.8076923 30.3461538,49.6153846 C29.4230769,50.4230769 29.0769231,50.6538462 28.7307692,50.1923077 C28.2692308,49.7307692 28.3846154,49.2692308 29.0769231,48.6923077 Z M43.9615385,49.1538462 C41.8846154,49.0384615 37.8461538,42.6923077 35.3076923,42.5769231 C32.0769231,42.4615385 24.9230769,49.3846154 19.3846154,49.3846154 C16.0384615,49.3846154 15,48.9230769 13.8461538,48.1153846 C12.1153846,46.9615385 11.3076923,45.1153846 11.3076923,42.6923077 C11.3076923,38.3076923 15.4615385,34.1538462 20.6538462,34.1538462 C27.2307692,34.1538462 31.8461538,40.7307692 35.1923077,40.6153846 C37.9615385,40.6153846 43.3846154,35.0769231 46.0384615,35.0769231 C48.8076923,35.0769231 49.6153846,37.9615385 49.6153846,39.8076923 C49.6153846,41.6538462 49.0384615,44.7692308 47.6538462,46.7307692 C46.3846154,48.5769231 45.5769231,49.2692308 43.9615385,49.1538462 Z" id="Shape"></path>
                    </g>
                </g>
            </g>
        </g>
    </g>
</svg>