<?xml version="1.0" encoding="UTF-8"?>
<svg width="108px" height="94px" viewBox="0 0 108 94" version="1.1" xmlns="http://www.w3.org/2000/svg" xmlns:xlink="http://www.w3.org/1999/xlink">
    <!-- Generator: Sketch 63.1 (92452) - https://sketch.com -->
    <title>laravel-framework</title>
    <desc>Created with Sketch.</desc>
    <defs>
        <rect id="path-1" x="0" y="0" width="110" height="110"></rect>
        <rect id="path-3" x="0" y="0" width="110" height="110"></rect>
        <rect id="path-5" x="0" y="0" width="110" height="110"></rect>
        <rect id="path-7" x="0" y="0" width="110" height="110"></rect>
        <rect id="path-9" x="0" y="0" width="110" height="110"></rect>
        <rect id="path-11" x="0" y="0" width="110" height="110"></rect>
        <rect id="path-13" x="0" y="0" width="110" height="110"></rect>
        <rect id="path-15" x="0" y="0" width="110" height="110"></rect>
    </defs>
    <g id="181023" stroke="none" stroke-width="1" fill="none" fill-rule="evenodd">
        <g id="Php--Development-New" transform="translate(-1067.000000, -4377.000000)">
            <g id="Technologies" transform="translate(120.000000, 4000.000000)">
                <g id="Php" transform="translate(208.000000, 369.000000)">
                    <g id="laravel-framework" transform="translate(738.000000, 0.000000)">
                        <g id="Clipped">
                            <mask id="mask-2" fill="white">
                                <use xlink:href="#path-1"></use>
                            </mask>
                            <g id="SVGID_1_"></g>
                            <path d="M68.042172,81.426444 C67.47158,81.426444 66.924396,81.131424 66.617276,80.619572 L54.053736,59.66796 L30.582992,66.050336 C29.834156,66.25476 29.044928,65.912264 28.68052,65.227272 L1.243924,13.614392 C0.9889,13.13444 0.984764,12.559888 1.232924,12.076372 C1.481084,11.592636 1.950388,11.261184 2.489124,11.188584 L25.804152,8.051208 C26.461644,7.9629 27.108796,8.274112 27.450148,8.84312 L55.609136,55.80234 L88.31394,46.908884 L77.391204,31.5128 C77.071456,31.06202 76.996876,30.4821 77.191884,29.965188 C77.386892,29.448276 77.826276,29.062088 78.364088,28.935192 L93.66632,25.32112 C94.290592,25.173368 94.943376,25.398824 95.344568,25.89928 L108.586104,42.431928 C108.935728,42.868804 109.042076,43.452552 108.868672,43.984732 C108.695356,44.516956 108.265652,44.926068 107.725376,45.07294 L93.77588,48.8664 L105.93748,66.008712 C106.23954,66.434412 106.323844,66.977064 106.165664,67.474132 C106.007088,67.9712 105.624244,68.365 105.131884,68.53748 L68.590808,81.332988 C68.410188,81.396172 68.224904,81.426444 68.042172,81.426444 M57.384184,58.762352 L68.770284,77.75042 L101.951608,66.131472 L90.361304,49.794712 L57.384184,58.762352 Z M5.297512,14.162676 L30.99118,62.496808 L52.278908,56.707948 L25.163424,11.489412 L5.297512,14.162676 Z M81.527028,31.60146 L91.728516,45.980572 L104.409888,42.53194 L93.40782,28.79536 L81.527028,31.60146 Z" id="Shape" fill="#F0543F" fill-rule="nonzero" mask="url(#mask-2)"></path>
                        </g>
                        <g id="Clipped">
                            <mask id="mask-4" fill="white">
                                <use xlink:href="#path-3"></use>
                            </mask>
                            <g id="SVGID_1_"></g>
                            <rect id="Rectangle" fill="#6E6E6E" fill-rule="nonzero" mask="url(#mask-4)" x="24.834128" y="86.191336" width="1.38864" height="14.957668"></rect>
                        </g>
                        <g id="Clipped">
                            <mask id="mask-6" fill="white">
                                <use xlink:href="#path-5"></use>
                            </mask>
                            <g id="SVGID_1_"></g>
                            <path d="M39.861096,90.357212 L39.861096,101.149004 L38.4923,101.149004 L38.4923,99.294052 C37.9104,100.001748 37.25744,100.53406 36.533376,100.89112 C35.809268,101.24818 35.0174,101.426776 34.157816,101.426776 C32.630312,101.426776 31.325976,100.872948 30.244852,99.76516 C29.163684,98.657768 28.6231,97.310268 28.6231,95.723276 C28.6231,94.169548 29.168656,92.840396 30.259724,91.735952 C31.350792,90.63164 32.6634,90.079528 34.19746,90.079528 C35.083532,90.079528 35.885344,90.26798 36.602764,90.644928 C37.320228,91.021832 37.950088,91.587188 38.4923,92.34104 L38.4923,90.3573 L39.861096,90.3573 L39.861096,90.357212 Z M34.311552,91.418492 C33.538868,91.418492 32.825364,91.60844 32.171392,91.98816 C31.51742,92.368056 30.99734,92.901512 30.611152,93.588396 C30.224656,94.275236 30.031584,95.001808 30.031584,95.767848 C30.031584,96.52764 30.226328,97.254168 30.616124,97.94752 C31.005612,98.641004 31.529344,99.18106 32.186264,99.56738 C32.843536,99.953876 33.54846,100.146992 34.301608,100.146992 C35.061092,100.146992 35.781152,99.955416 36.461612,99.572352 C37.14172,99.189156 37.6651,98.670704 38.031752,98.016864 C38.398052,97.363068 38.581576,96.626596 38.581576,95.807448 C38.581576,94.559212 38.170264,93.515576 37.347992,92.676804 C36.525764,91.838076 35.513676,91.418492 34.311552,91.418492" id="Shape" fill="#6E6E6E" fill-rule="nonzero" mask="url(#mask-6)"></path>
                        </g>
                        <g id="Clipped">
                            <mask id="mask-8" fill="white">
                                <use xlink:href="#path-7"></use>
                            </mask>
                            <g id="SVGID_1_"></g>
                            <path d="M42.459824,90.357212 L43.878208,90.357212 L43.878208,91.934304 C44.3014,91.312892 44.74778,90.848164 45.217216,90.540692 C45.68674,90.23322 46.176064,90.079528 46.685232,90.079528 C47.06878,90.079528 47.478728,90.20198 47.915164,90.446488 L47.1911,91.616932 C46.900128,91.491444 46.655444,91.42848 46.457092,91.42848 C45.994168,91.42848 45.547876,91.61856 45.118084,91.998808 C44.688248,92.379232 44.360932,92.96936 44.136092,93.76928 C43.964184,94.384268 43.878208,95.627576 43.878208,97.498764 L43.878208,101.149048 L42.459824,101.149048 L42.459824,90.357212 L42.459824,90.357212 Z" id="Path" fill="#6E6E6E" fill-rule="nonzero" mask="url(#mask-8)"></path>
                        </g>
                        <g id="Clipped">
                            <mask id="mask-10" fill="white">
                                <use xlink:href="#path-9"></use>
                            </mask>
                            <g id="SVGID_1_"></g>
                            <path d="M59.847392,90.357212 L59.847392,101.149004 L58.47864,101.149004 L58.47864,99.294052 C57.896696,100.001748 57.24378,100.53406 56.519716,100.89112 C55.795652,101.24818 55.003828,101.426776 54.144156,101.426776 C52.616652,101.426776 51.312316,100.872948 50.231192,99.76516 C49.150024,98.657768 48.609484,97.310268 48.609484,95.723276 C48.609484,94.169548 49.154996,92.840396 50.246064,91.735952 C51.337132,90.63164 52.64974,90.079528 54.183844,90.079528 C55.069916,90.079528 55.871684,90.26798 56.589148,90.644928 C57.306612,91.021876 57.936428,91.587188 58.47864,92.34104 L58.47864,90.3573 L59.847392,90.3573 L59.847392,90.357212 Z M54.297848,91.418492 C53.525164,91.418492 52.811704,91.60844 52.157688,91.98816 C51.503716,92.368056 50.983636,92.901512 50.597492,93.588396 C50.210996,94.275236 50.017924,95.001808 50.017924,95.767848 C50.017924,96.52764 50.212624,97.254168 50.602464,97.94752 C50.991908,98.641004 51.51564,99.18106 52.172604,99.56738 C52.829876,99.953876 53.534756,100.146992 54.287904,100.146992 C55.047388,100.146992 55.767492,99.955416 56.447908,99.572352 C57.128016,99.189156 57.65144,98.670704 58.018092,98.016864 C58.384392,97.363068 58.567872,96.626596 58.567872,95.807448 C58.567872,94.559212 58.156604,93.515576 57.334332,92.676804 C56.51206,91.838076 55.500016,91.418492 54.297848,91.418492" id="Shape" fill="#6E6E6E" fill-rule="nonzero" mask="url(#mask-10)"></path>
                        </g>
                        <g id="Clipped">
                            <mask id="mask-12" fill="white">
                                <use xlink:href="#path-11"></use>
                            </mask>
                            <g id="SVGID_1_"></g>
                            <polygon id="Path" fill="#6E6E6E" fill-rule="nonzero" mask="url(#mask-12)" points="61.950196 90.357212 63.428112 90.357212 67.050456 98.223752 70.629152 90.357212 72.116924 90.357212 67.177396 101.149004 66.919512 101.149004"></polygon>
                        </g>
                        <g id="Clipped">
                            <mask id="mask-14" fill="white">
                                <use xlink:href="#path-13"></use>
                            </mask>
                            <g id="SVGID_1_"></g>
                            <path d="M83.315232,97.568152 L84.485676,98.18314 C84.10182,98.936992 83.658432,99.545468 83.155248,100.008216 C82.652372,100.471228 82.086356,100.82336 81.457816,101.064744 C80.82866,101.306084 80.117136,101.42682 79.32298,101.42682 C77.562364,101.42682 76.185956,100.849892 75.19314,99.695816 C74.20028,98.541916 73.70396,97.23758 73.70396,95.782808 C73.70396,94.414056 74.124204,93.194024 74.964648,92.1228 C76.03024,90.760604 77.456588,90.079528 79.243604,90.079528 C81.083508,90.079528 82.552844,90.77728 83.651524,92.172388 C84.432436,93.157812 84.829536,94.387744 84.842736,95.86214 L75.132244,95.86214 C75.158732,97.115524 75.559132,98.143144 76.333796,98.944736 C77.108416,99.746372 78.065284,100.14708 79.203916,100.14708 C79.753432,100.14708 80.287724,100.051512 80.807804,99.860552 C81.327224,99.669636 81.769292,99.415888 82.13326,99.099616 C82.497624,98.78352 82.891424,98.273076 83.315232,97.568152 M83.315232,94.661952 C83.129772,93.92152 82.859964,93.329544 82.505808,92.886464 C82.151432,92.443604 81.683272,92.0865 81.100668,91.81524 C80.5178,91.544112 79.905452,91.408548 79.26336,91.408548 C78.20406,91.408548 77.29348,91.74924 76.532412,92.430184 C75.975988,92.926108 75.555788,93.67006 75.271108,94.661952 L83.315232,94.661952 L83.315232,94.661952 Z" id="Shape" fill="#6E6E6E" fill-rule="nonzero" mask="url(#mask-14)"></path>
                        </g>
                        <g id="Clipped">
                            <mask id="mask-16" fill="white">
                                <use xlink:href="#path-15"></use>
                            </mask>
                            <g id="SVGID_1_"></g>
                            <rect id="Rectangle" fill="#6E6E6E" fill-rule="nonzero" mask="url(#mask-16)" x="87.223268" y="86.191336" width="1.388684" height="14.957668"></rect>
                        </g>
                    </g>
                </g>
            </g>
        </g>
    </g>
</svg>