<?xml version="1.0" encoding="UTF-8"?>
<svg width="145px" height="90px" viewBox="0 0 145 90" version="1.1" xmlns="http://www.w3.org/2000/svg" xmlns:xlink="http://www.w3.org/1999/xlink">
    <!-- Generator: Sketch 63.1 (92452) - https://sketch.com -->
    <title>wordpress-seeklogo.com</title>
    <desc>Created with Sketch.</desc>
    <defs>
        <polygon id="path-1" points="0.0432 0.65592 73.84248 0.65592 73.84248 19.3968 0.0432 19.3968"></polygon>
    </defs>
    <g id="181023" stroke="none" stroke-width="1" fill="none" fill-rule="evenodd">
        <g id="Php--Development-New" transform="translate(-1074.000000, -4599.000000)">
            <g id="Technologies" transform="translate(120.000000, 4000.000000)">
                <g id="CMS" transform="translate(208.000000, 599.000000)">
                    <g id="wordpress-seeklogo.com" transform="translate(746.000000, 0.000000)">
                        <g id="Group-4" transform="translate(0.000000, 70.560000)">
                            <mask id="mask-2" fill="white">
                                <use xlink:href="#path-1"></use>
                            </mask>
                            <g id="Clip-2"></g>
                            <path d="M65.41056,17.43624 L65.11752,17.43624 C63.61488,17.43624 63.40608,17.06112 63.40608,15.14088 L63.40608,6.08328 C63.40608,6.08328 65.2428,6.08328 65.41056,6.08328 C69.75144,6.08328 70.54488,9.25488 70.54488,11.718 C70.54488,14.26392 69.75144,17.43624 65.41056,17.43624 Z M47.79504,11.63448 L47.79504,6.08328 L49.50648,6.08328 C51.38424,6.08328 52.21944,7.37712 52.21944,8.87904 C52.21944,10.34064 51.38424,11.63448 49.50648,11.63448 L47.79504,11.63448 Z M65.28528,4.82976 L57.81312,4.82976 L57.81312,5.6232 C60.15024,5.6232 60.52536,6.1236 60.52536,9.08856 L60.52536,14.43096 C60.52536,17.3952 60.15024,17.93808 57.81312,17.93808 C56.01888,17.68752 54.80784,16.72704 53.13816,14.89032 L51.21792,12.80376 C53.8056,12.34368 55.18368,10.71576 55.18368,8.87904 C55.18368,6.58368 53.22168,4.82976 49.54752,4.82976 L42.20136,4.82976 L42.20136,5.6232 C44.53848,5.6232 44.91432,6.1236 44.91432,9.08856 L44.91432,14.43096 C44.91432,17.3952 44.53848,17.93808 42.20136,17.93808 L42.20136,18.73008 L50.508,18.73008 L50.508,17.93808 C48.17016,17.93808 47.79504,17.3952 47.79504,14.43096 L47.79504,12.92904 L48.50424,12.92904 L53.13816,18.73008 L65.28528,18.73008 C71.2548,18.73008 73.84248,15.55848 73.84248,11.75976 C73.84248,7.96104 71.2548,4.82976 65.28528,4.82976 L65.28528,4.82976 Z" id="Fill-1" fill="#006B8A" mask="url(#mask-2)"></path>
                            <path d="M18.95112,13.17888 L21.83112,4.66272 C22.66632,2.20032 22.2912,1.49112 19.61928,1.49112 L19.61928,0.65592 L27.46728,0.65592 L27.46728,1.49112 C24.83784,1.49112 24.21144,2.1168 23.16744,5.16384 L18.40824,19.44 L17.86608,19.44 L13.608,6.37416 L9.26712,19.44 L8.72424,19.44 L4.09104,5.16384 C3.08952,2.1168 2.42136,1.49112 0,1.49112 L0,0.65592 L9.26712,0.65592 L9.26712,1.49112 C6.804,1.49112 6.13584,2.07504 7.0128,4.66272 L9.80928,13.17888 L14.0256,0.65592 L14.81904,0.65592 L18.95112,13.17888" id="Fill-3" fill="#006B8A" mask="url(#mask-2)"></path>
                        </g>
                        <path d="M33.14304,76.14144 C29.30328,76.14144 27.96696,79.60608 27.96696,82.31976 C27.96696,85.0752 29.30328,88.49808 33.14304,88.49808 C37.02528,88.49808 38.36088,85.0752 38.36088,82.31976 C38.36088,79.60608 37.02528,76.14144 33.14304,76.14144 Z M33.14304,89.83296 C28.5516,89.83296 24.79464,86.45256 24.79464,82.31976 C24.79464,78.22872 28.5516,74.8476 33.14304,74.8476 C37.7352,74.8476 41.49216,78.22872 41.49216,82.31976 C41.49216,86.45256 37.7352,89.83296 33.14304,89.83296 L33.14304,89.83296 Z" id="Fill-5" fill="#006B8A"></path>
                        <path d="M83.23416,72.71856 L80.85456,72.71856 L80.85456,79.9812 L83.23416,79.9812 C85.572,79.9812 86.65632,78.354 86.65632,76.39272 C86.65632,74.38896 85.572,72.71856 83.23416,72.71856 Z M84.15216,88.4556 L84.15216,89.29008 L74.59344,89.29008 L74.59344,88.4556 C77.38992,88.4556 77.89104,87.7464 77.89104,83.57184 L77.89104,76.89312 C77.89104,72.71856 77.38992,72.05112 74.59344,72.05112 L74.59344,71.21592 L83.23416,71.21592 C87.53328,71.21592 89.91288,73.42848 89.91288,76.39272 C89.91288,79.27272 87.53328,81.52704 83.23416,81.52704 L80.85456,81.52704 L80.85456,83.57184 C80.85456,87.7464 81.35496,88.4556 84.15216,88.4556 L84.15216,88.4556 Z" id="Fill-6" fill="#3E3D3A"></path>
                        <path d="M96.46632,82.19448 L96.46632,76.64328 L98.17776,76.64328 C100.05624,76.64328 100.89144,77.93712 100.89144,79.43904 C100.89144,80.90064 100.05624,82.19448 98.17776,82.19448 L96.46632,82.19448 Z M118.58904,85.3668 L118.38096,86.11848 C118.00512,87.49584 117.54576,87.99624 114.58224,87.99624 L113.9976,87.99624 C111.8268,87.99624 111.45168,87.49584 111.45168,84.53232 L111.45168,82.61208 C114.7068,82.61208 114.95808,82.90368 114.95808,85.0752 L115.75152,85.0752 L115.75152,78.85512 L114.95808,78.85512 C114.95808,81.02592 114.7068,81.31752 111.45168,81.31752 L111.45168,76.64328 L113.74704,76.64328 C116.71128,76.64328 117.16992,77.14368 117.54576,78.52104 L117.75456,79.31376 L118.42272,79.31376 L118.1304,75.38976 L105.85728,75.38976 L105.85728,76.1832 C108.19512,76.1832 108.57096,76.6836 108.57096,79.64856 L108.57096,84.99096 C108.57096,87.70248 108.252,88.38504 106.4088,88.48296 C104.65704,88.21512 103.45464,87.25968 101.80872,85.45032 L99.88848,83.36376 C102.47688,82.90368 103.85496,81.27576 103.85496,79.43904 C103.85496,77.14368 101.89368,75.38976 98.21952,75.38976 L90.87264,75.38976 L90.87264,76.1832 C93.21048,76.1832 93.5856,76.6836 93.5856,79.64856 L93.5856,84.99096 C93.5856,87.9552 93.21048,88.49808 90.87264,88.49808 L90.87264,89.29008 L99.17928,89.29008 L99.17928,88.49808 C96.84216,88.49808 96.46632,87.9552 96.46632,84.99096 L96.46632,83.48904 L97.17624,83.48904 L101.80872,89.29008 L118.96488,89.29008 L119.21544,85.3668 L118.58904,85.3668 L118.58904,85.3668 Z" id="Fill-7" fill="#3E3D3A"></path>
                        <path d="M127.06344,89.83296 C125.39304,89.83296 123.93216,88.95672 123.30648,88.41384 C123.09768,88.62336 122.72184,89.24904 122.63832,89.83296 L121.84488,89.83296 L121.84488,84.07296 L122.68008,84.07296 C123.01416,86.82768 124.9344,88.4556 127.3968,88.4556 C128.7324,88.4556 129.81816,87.70464 129.81816,86.45256 C129.81816,85.3668 128.85768,84.53232 127.14696,83.73888 L124.76736,82.61208 C123.09768,81.81792 121.84488,80.44128 121.84488,78.60456 C121.84488,76.6008 123.72336,74.88936 126.31248,74.88936 C127.68984,74.88936 128.85768,75.38976 129.5676,75.97512 C129.7764,75.80808 129.98448,75.348 130.11048,74.8476 L130.90392,74.8476 L130.90392,79.77312 L130.02696,79.77312 C129.73464,77.81112 128.6496,76.1832 126.43704,76.1832 C125.26776,76.1832 124.18272,76.85136 124.18272,77.89464 C124.18272,78.9804 125.05896,79.5636 127.06344,80.48304 L129.3588,81.60984 C131.36256,82.5696 132.156,84.11472 132.156,85.3668 C132.156,87.99624 129.8592,89.83296 127.06344,89.83296" id="Fill-8" fill="#3E3D3A"></path>
                        <path d="M139.91976,89.83296 C138.25008,89.83296 136.78776,88.95672 136.16208,88.41384 C135.95328,88.62336 135.57816,89.24904 135.49536,89.83296 L134.7012,89.83296 L134.7012,84.07296 L135.5364,84.07296 C135.87048,86.82768 137.79,88.4556 140.25312,88.4556 C141.58872,88.4556 142.67448,87.70464 142.67448,86.45256 C142.67448,85.3668 141.714,84.53232 140.00256,83.73888 L137.62368,82.61208 C135.95328,81.81792 134.7012,80.44128 134.7012,78.60456 C134.7012,76.6008 136.57968,74.88936 139.16808,74.88936 C140.54544,74.88936 141.714,75.38976 142.42464,75.97512 C142.63272,75.80808 142.84152,75.348 142.96608,74.8476 L143.75952,74.8476 L143.75952,79.77312 L142.88256,79.77312 C142.59096,77.81112 141.5052,76.1832 139.29336,76.1832 C138.1248,76.1832 137.03904,76.85136 137.03904,77.89464 C137.03904,78.9804 137.91528,79.5636 139.91976,80.48304 L142.2144,81.60984 C144.21888,82.5696 145.0116,84.11472 145.0116,85.3668 C145.0116,87.99624 142.71624,89.83296 139.91976,89.83296" id="Fill-9" fill="#3E3D3A"></path>
                        <path d="M45.39384,31.4388 C45.39384,42.11352 51.59736,51.33888 60.59376,55.71072 L47.7288,20.46312 C46.23264,23.8176 45.39384,27.5292 45.39384,31.4388" id="Fill-10" fill="#3E3D3A"></path>
                        <path d="M90.5688,30.078 C90.5688,26.74512 89.37144,24.4368 88.34472,22.6404 C86.97816,20.4192 85.69584,18.53784 85.69584,16.31592 C85.69584,13.83696 87.57648,11.52936 90.22464,11.52936 C90.34416,11.52936 90.45792,11.54448 90.57456,11.55096 C85.77648,7.15464 79.38432,4.4712 72.36288,4.4712 C62.94096,4.4712 54.65232,9.30528 49.82904,16.62624 C50.46264,16.64568 51.05952,16.65864 51.56568,16.65864 C54.38592,16.65864 58.75272,16.31592 58.75272,16.31592 C60.2064,16.23096 60.37776,18.36576 58.92552,18.53784 C58.92552,18.53784 57.46392,18.7092 55.83888,18.79488 L65.65968,48.00744 L71.56224,30.30696 L67.36032,18.79488 C65.90808,18.7092 64.53216,18.53784 64.53216,18.53784 C63.07848,18.45288 63.24912,16.23096 64.7028,16.31592 C64.7028,16.31592 69.156,16.65864 71.8056,16.65864 C74.62584,16.65864 78.99336,16.31592 78.99336,16.31592 C80.44776,16.23096 80.61912,18.36576 79.16616,18.53784 C79.16616,18.53784 77.7024,18.7092 76.07952,18.79488 L85.82544,47.78568 L88.51536,38.7972 C89.68176,35.06544 90.5688,32.38704 90.5688,30.078" id="Fill-11" fill="#3E3D3A"></path>
                        <path d="M72.83664,33.79824 L64.74456,57.31128 C67.16016,58.0212 69.71544,58.41 72.36288,58.41 C75.5028,58.41 78.51528,57.86712 81.31824,56.88144 C81.24624,56.76552 81.18072,56.64312 81.12672,56.50992 L72.83664,33.79824" id="Fill-12" fill="#3E3D3A"></path>
                        <path d="M96.02712,18.5004 C96.14304,19.35936 96.20856,20.28168 96.20856,21.27384 C96.20856,24.00984 95.69736,27.0864 94.158,30.93336 L85.92048,54.75096 C93.9384,50.07456 99.3312,41.38776 99.3312,31.4388 C99.3312,26.75016 98.13384,22.3416 96.02712,18.5004" id="Fill-13" fill="#3E3D3A"></path>
                        <path d="M72.36288,61.43616 C55.82376,61.43616 42.36696,47.97936 42.36696,31.4388 C42.36696,14.89968 55.82376,1.4436 72.36288,1.4436 C88.902,1.4436 102.35736,14.89968 102.35736,31.4388 C102.35736,47.97936 88.902,61.43616 72.36288,61.43616 Z M72.36288,0.00216 C55.02816,0.00216 40.92552,14.1048 40.92552,31.4388 C40.92552,48.77568 55.02816,62.8776 72.36288,62.8776 C89.69616,62.8776 103.80168,48.77568 103.80168,31.4388 C103.80168,14.1048 89.69616,0.00216 72.36288,0.00216 L72.36288,0.00216 Z" id="Fill-14" fill="#3E3D3A"></path>
                    </g>
                </g>
            </g>
        </g>
    </g>
</svg>