<svg width="20" height="20" viewBox="0 0 24 24" xmlns="http://www.w3.org/2000/svg">
  <defs>
    <linearGradient id="ig-gradient" x1="0%" y1="0%" x2="100%" y2="100%">
      <stop offset="0%" stop-color="#feda75"></stop>
      <stop offset="25%" stop-color="#fa7e1e"></stop>
      <stop offset="50%" stop-color="#d62976"></stop>
      <stop offset="75%" stop-color="#962fbf"></stop>
      <stop offset="100%" stop-color="#4f5bd5"></stop>
    </linearGradient>
  </defs>
  <path fill="url(#ig-gradient)" d="M7 2C4.24 2 2 4.24 2 7v10c0 2.76 2.24 5 5 5h10c2.76 0 5-2.24 5-5V7c0-2.76-2.24-5-5-5H7zm0 2h10c1.66 0 3 1.34 3 3v10c0 1.66-1.34 3-3 3H7c-1.66 0-3-1.34-3-3V7c0-1.66 1.34-3 3-3zm5 3.5A5.5 5.5 0 1 0 17.5 13 5.51 5.51 0 0 0 12 7.5zm0 2A3.5 3.5 0 1 1 8.5 13 3.5 3.5 0 0 1 12 9.5zm4.75-3.75a1.25 1.25 0 1 0 1.25 1.25 1.25 1.25 0 0 0-1.25-1.25z"></path>
</svg>
