<svg width="20" height="20" viewBox="0 0 24 24" fill="#E60023" xmlns="http://www.w3.org/2000/svg">
  <path d="M12 2C6.48 2 2 6.07 2 11.09c0 3.63 2.27 6.69 5.47 8.05-.08-.68-.15-1.73.03-2.48.16-.67 1.02-4.27 1.02-4.27s-.26-.52-.26-1.29c0-1.21.7-2.11 1.57-2.11.74 0 1.1.55 1.1 1.21 0 .74-.47 1.84-.71 2.86-.2.85.43 1.54 1.27 1.54 1.52 0 2.69-1.6 2.69-3.9 0-2.04-1.46-3.46-3.56-3.46-2.42 0-3.84 1.81-3.84 3.68 0 .73.28 1.51.63 1.94.07.09.08.17.06.26-.07.29-.23.85-.26.97-.04.15-.13.18-.3.11-1.13-.53-1.84-2.19-1.84-3.52 0-2.87 2.09-5.51 6.02-5.51 3.16 0 5.62 2.25 5.62 5.26 0 3.14-1.98 5.66-4.73 5.66-.92 0-1.79-.48-2.09-1.05l-.57 2.17c-.21.81-.77 1.82-1.15 2.44.87.27 1.79.42 2.74.42 5.52 0 10-4.07 10-9.09S17.52 2 12 2z"/>
</svg>